<svg xmlns="http://www.w3.org/2000/svg" width="980" height="560" viewBox="0 0 980 560">
  <defs>
    <style>
      .title { font: 700 30px "Segoe UI", Arial, sans-serif; fill: #0f172a; }
      .subtitle { font: 600 20px "Segoe UI", Arial, sans-serif; fill: #1e293b; }
      .label { font: 500 18px "Segoe UI", Arial, sans-serif; fill: #334155; }
      .small { font: 500 15px "Segoe UI", Arial, sans-serif; fill: #64748b; }
      .axis { stroke: #0f172a; stroke-width: 2.4; }
      .guide { stroke: #94a3b8; stroke-width: 1.6; stroke-dasharray: 6 5; }
      .curve { fill: none; stroke: #111827; stroke-width: 4; }
      .fillOcc { fill: #dbeafe; stroke: none; opacity: 0.8; }
      .fillEmp { fill: #fee2e2; stroke: none; opacity: 0.7; }
      .ef { stroke: #ef4444; stroke-width: 2.5; stroke-dasharray: 7 6; }
      .box { fill: #f8fafc; stroke: #cbd5e1; stroke-width: 2; rx: 12; }
    </style>
  </defs>

  <rect x="0" y="0" width="980" height="560" fill="#ffffff"/>
  <text x="490" y="46" text-anchor="middle" class="title">Fermi-Dirac at T = 0 K</text>
  <text x="490" y="74" text-anchor="middle" class="small">理想阶跃: E &lt; E_F 全占据, E &gt; E_F 全空</text>

  <rect x="90" y="110" width="610" height="400" class="box"/>
  <line x1="150" y1="460" x2="660" y2="460" class="axis"/>
  <line x1="150" y1="460" x2="150" y2="150" class="axis"/>
  <text x="668" y="467" class="label">E</text>
  <text x="132" y="154" class="label">f(E)</text>

  <!-- occupied/empty shading -->
  <rect x="150" y="180" width="240" height="280" class="fillOcc"/>
  <rect x="390" y="180" width="270" height="280" class="fillEmp"/>

  <!-- step function -->
  <path class="curve" d="M150 180 H390 V460 H660"/>
  <line x1="390" y1="150" x2="390" y2="460" class="ef"/>
  <text x="398" y="173" class="label" fill="#ef4444">E_F</text>

  <!-- tick labels -->
  <line x1="145" y1="180" x2="155" y2="180" class="guide"/>
  <line x1="145" y1="460" x2="155" y2="460" class="guide"/>
  <text x="126" y="186" class="small">1</text>
  <text x="126" y="466" class="small">0</text>

  <!-- notes -->
  <rect x="730" y="130" width="220" height="360" class="box"/>
  <text x="752" y="165" class="subtitle">Interpretation</text>
  <text x="752" y="200" class="small">E &lt; E_F → f = 1</text>
  <text x="752" y="224" class="small">E &gt; E_F → f = 0</text>
  <text x="752" y="258" class="small">Sharp step at 0 K</text>
  <text x="752" y="300" class="small">E_F 以下: fully occupied</text>
  <text x="752" y="324" class="small">E_F 以上: empty states</text>
  <text x="752" y="362" class="small">No thermal smearing</text>
</svg>
